<?xml version="1.0" encoding="utf-8"?>
<!-- Generated by IcoMoon.io -->
<!DOCTYPE svg PUBLIC "-//W3C//DTD SVG 1.1//EN" "http://www.w3.org/Graphics/SVG/1.1/DTD/svg11.dtd">
<svg version="1.1" xmlns="http://www.w3.org/2000/svg" xmlns:xlink="http://www.w3.org/1999/xlink" width="24" height="24" viewBox="0 0 24 24">
<path fill="currentColor" d="M12 21.75c-5.385 0-9.75-4.365-9.75-9.75s4.365-9.75 9.75-9.75 9.75 4.365 9.75 9.75-4.365 9.75-9.75 9.75zM12 4.5c-4.142 0-7.5 3.358-7.5 7.5s3.358 7.5 7.5 7.5c4.142 0 7.5-3.358 7.5-7.5s-3.358-7.5-7.5-7.5zM15.403 14.651l-0.76 0.76c-0.14 0.139-0.366 0.139-0.506 0l-2.152-2.153-2.153 2.153c-0.14 0.139-0.366 0.139-0.506 0l-0.761-0.76c-0.139-0.14-0.139-0.366 0-0.506l2.153-2.152-2.153-2.152c-0.139-0.14-0.139-0.367 0-0.507l0.761-0.76c0.14-0.14 0.366-0.14 0.506 0l2.153 2.153 2.152-2.153c0.14-0.14 0.367-0.14 0.506 0l0.76 0.76c0.139 0.14 0.139 0.367 0 0.507l-2.153 2.152 2.153 2.152c0.139 0.14 0.139 0.367 0 0.506z"></path>
</svg>
