<?xml version="1.0" encoding="utf-8"?>
<!-- Generated by IcoMoon.io -->
<!DOCTYPE svg PUBLIC "-//W3C//DTD SVG 1.1//EN" "http://www.w3.org/Graphics/SVG/1.1/DTD/svg11.dtd">

<svg version="1.1" xmlns="http://www.w3.org/2000/svg" xmlns:xlink="http://www.w3.org/1999/xlink" width="350" height="350" viewBox="0 0 350 350">
	<g transform="translate(0 0)">
		<path fill="#fff" d="M11.196 9.714q0 0.232-0.179 0.411l-7.018 7.018 7.018 7.018q0.179 0.179 0.179 0.411t-0.179 0.411l-0.893 0.893q-0.179 0.179-0.411 0.179t-0.411-0.179l-8.321-8.321q-0.179-0.179-0.179-0.411t0.179-0.411l8.321-8.321q0.179-0.179 0.411-0.179t0.411 0.179l0.893 0.893q0.179 0.179 0.179 0.411z"></path>
	</g>

	<g transform="translate(0 50)">
		<path fill="#fff" d="M10.625 17.143q0 0.232-0.179 0.411l-8.321 8.321q-0.179 0.179-0.411 0.179t-0.411-0.179l-0.893-0.893q-0.179-0.179-0.179-0.411t0.179-0.411l7.018-7.018-7.018-7.018q-0.179-0.179-0.179-0.411t0.179-0.411l0.893-0.893q0.179-0.179 0.411-0.179t0.411 0.179l8.321 8.321q0.179 0.179 0.179 0.411z"></path>
	</g>

	<g transform="translate(0 100)">
		<path fill="#fff" d="M12.857 9.286q0-2.065-1.468-3.532t-3.532-1.468-3.532 1.468-1.468 3.532 1.468 3.532 3.532 1.468 3.532-1.468 1.468-3.532zM18.571 18.571q0 0.58-0.424 1.004t-1.004 0.424q-0.603 0-1.004-0.424l-3.828-3.817q-1.998 1.384-4.453 1.384-1.596 0-3.052-0.619t-2.511-1.674-1.674-2.511-0.619-3.052 0.619-3.052 1.674-2.511 2.511-1.674 3.052-0.619 3.052 0.619 2.511 1.674 1.674 2.511 0.619 3.052q0 2.455-1.384 4.453l3.828 3.828q0.413 0.413 0.413 1.004z"></path>
	</g>
	<g transform="translate(0 150)">
		<path fill="#000" d="M11.998 8.214q0 0.145-0.112 0.257l-5.201 5.201q-0.112 0.112-0.257 0.112t-0.257-0.112l-5.201-5.201q-0.112-0.112-0.112-0.257t0.112-0.257l0.558-0.558q0.112-0.112 0.257-0.112t0.257 0.112l4.386 4.386 4.386-4.386q0.112-0.112 0.257-0.112t0.257 0.112l0.558 0.558q0.112 0.112 0.112 0.257z"></path>
	</g>
	<g transform="translate(0 200)">
		<path fill="#41ade2" d="M11.998 8.214q0 0.145-0.112 0.257l-5.201 5.201q-0.112 0.112-0.257 0.112t-0.257-0.112l-5.201-5.201q-0.112-0.112-0.112-0.257t0.112-0.257l0.558-0.558q0.112-0.112 0.257-0.112t0.257 0.112l4.386 4.386 4.386-4.386q0.112-0.112 0.257-0.112t0.257 0.112l0.558 0.558q0.112 0.112 0.112 0.257z"></path>
	</g>
	<g transform="translate(0 250)">
		<path fill="#ababab" d="M12 21.75c-5.385 0-9.75-4.365-9.75-9.75s4.365-9.75 9.75-9.75 9.75 4.365 9.75 9.75-4.365 9.75-9.75 9.75zM12 4.5c-4.142 0-7.5 3.358-7.5 7.5s3.358 7.5 7.5 7.5c4.142 0 7.5-3.358 7.5-7.5s-3.358-7.5-7.5-7.5zM15.403 14.651l-0.76 0.76c-0.14 0.139-0.366 0.139-0.506 0l-2.152-2.153-2.153 2.153c-0.14 0.139-0.366 0.139-0.506 0l-0.761-0.76c-0.139-0.14-0.139-0.366 0-0.506l2.153-2.152-2.153-2.152c-0.139-0.14-0.139-0.367 0-0.507l0.761-0.76c0.14-0.14 0.366-0.14 0.506 0l2.153 2.153 2.152-2.153c0.14-0.14 0.367-0.14 0.506 0l0.76 0.76c0.139 0.14 0.139 0.367 0 0.507l-2.153 2.152 2.153 2.152c0.139 0.14 0.139 0.367 0 0.506z"></path>
	</g>
	<g transform="translate(0 300)">
		<path fill="#41ade2" d="M12 21.75c-5.385 0-9.75-4.365-9.75-9.75s4.365-9.75 9.75-9.75 9.75 4.365 9.75 9.75-4.365 9.75-9.75 9.75zM12 4.5c-4.142 0-7.5 3.358-7.5 7.5s3.358 7.5 7.5 7.5c4.142 0 7.5-3.358 7.5-7.5s-3.358-7.5-7.5-7.5zM15.403 14.651l-0.76 0.76c-0.14 0.139-0.366 0.139-0.506 0l-2.152-2.153-2.153 2.153c-0.14 0.139-0.366 0.139-0.506 0l-0.761-0.76c-0.139-0.14-0.139-0.366 0-0.506l2.153-2.152-2.153-2.152c-0.139-0.14-0.139-0.367 0-0.507l0.761-0.76c0.14-0.14 0.366-0.14 0.506 0l2.153 2.153 2.152-2.153c0.14-0.14 0.367-0.14 0.506 0l0.76 0.76c0.139 0.14 0.139 0.367 0 0.507l-2.153 2.152 2.153 2.152c0.139 0.14 0.139 0.367 0 0.506z"></path>
	</g>

</svg>
